<svg xmlns="http://www.w3.org/2000/svg" width="512" height="512" viewBox="0 0 512 512" version="1.1"><path d="" stroke="none" fill="#080404" fill-rule="evenodd"/><path d="M 34.455 44.455 C 32.953 45.956, 32 48.059, 32 49.873 C 32 57.719, 34.895 58.997, 52.700 59.010 C 65.183 59.019, 66.995 59.250, 71.690 61.436 C 77.195 63.999, 82.094 69.581, 83.885 75.329 C 85.461 80.390, 126.382 313.952, 125.795 314.538 C 125.503 314.830, 122.393 315.523, 118.882 316.078 C 99.051 319.216, 83.947 334.679, 80.865 355 C 78.148 372.912, 86.244 391.854, 100.710 401.427 C 106.194 405.056, 115.436 407.976, 123.632 408.670 L 130.764 409.274 128.132 414.887 C 125.811 419.837, 125.501 421.740, 125.506 431 C 125.512 440.456, 125.790 442.066, 128.302 447.192 C 132.433 455.625, 139.002 462.383, 146.794 466.219 C 152.911 469.231, 154.240 469.500, 162.979 469.500 C 171.223 469.500, 173.269 469.140, 178.236 466.812 C 185.929 463.207, 193.353 455.587, 197.307 447.241 C 200.248 441.032, 200.497 439.711, 200.463 430.500 C 200.427 420.503, 200.240 419.764, 195.210 409.750 C 195.003 409.337, 219.149 409, 248.869 409 L 302.904 409 300.443 413.750 C 293.078 427.966, 296.090 445.813, 307.974 458.378 C 320.214 471.321, 339.886 473.592, 355.222 463.832 C 361.542 459.811, 365.660 454.934, 369.397 447.047 C 372.193 441.148, 372.500 439.556, 372.500 430.963 C 372.500 422.324, 372.210 420.842, 369.420 415.213 L 366.341 409 379.115 409 C 391.112 409, 392.056 408.856, 394.644 406.630 C 398.506 403.308, 398.506 397.692, 394.644 394.370 L 391.888 392 256.482 392 C 123.418 392, 120.982 391.965, 115.717 389.995 C 104.683 385.867, 97 374.433, 97 362.141 C 97 353.236, 99.478 347.374, 106.007 340.839 C 115.610 331.226, 101.021 332.003, 272.432 331.978 C 417.694 331.957, 422.634 331.895, 426.684 330.057 C 429.215 328.908, 431.843 326.644, 433.336 324.329 C 435.216 321.412, 441.070 298.945, 457.914 230 C 470.074 180.225, 480.018 137.558, 480.012 135.184 C 480.005 132.811, 479.495 129.886, 478.878 128.684 C 477.426 125.859, 473.052 121.149, 470.500 119.664 C 469.008 118.796, 422.817 118.373, 288.576 118 L 108.652 117.500 104.424 93.709 C 99.738 67.346, 97.911 62.178, 90.624 54.681 C 80.927 44.703, 72.711 42.029, 51.705 42.012 C 37.322 42, 36.841 42.068, 34.455 44.455 M 112 135.637 C 112 136.855, 120.177 182.502, 120.444 182.773 C 120.591 182.923, 129.016 182.923, 139.165 182.773 L 157.618 182.500 153.059 158.754 L 148.500 135.008 130.250 135.004 C 120.213 135.002, 112 135.287, 112 135.637 M 166 136.270 C 166 137.738, 173.829 178.628, 174.612 181.250 C 175.087 182.839, 176.926 183, 194.567 183 L 214 183 214 179.427 C 214 175.335, 211.207 143.140, 210.427 138.250 L 209.909 135 187.955 135 C 170.872 135, 166 135.282, 166 136.270 M 227.335 138.250 C 227.641 140.037, 228.667 150.838, 229.614 162.250 L 231.337 183 252.168 183 L 273 183 273 159 L 273 135 249.889 135 L 226.777 135 227.335 138.250 M 290 159.020 L 290 183.041 310.750 182.770 L 331.500 182.500 333.589 163.500 C 334.738 153.050, 335.920 142.363, 336.216 139.750 L 336.754 135 313.377 135 L 290 135 290 159.020 M 353.544 136.250 C 353.013 137.935, 349 176.808, 349 180.262 L 349 183 370.481 183 C 391.933 183, 391.963 182.997, 392.493 180.750 C 393.409 176.869, 402 135.942, 402 135.459 C 402 135.207, 391.186 135, 377.969 135 C 359.620 135, 353.844 135.296, 353.544 136.250 M 417.167 145.250 C 415.975 150.887, 413.697 161.688, 412.104 169.250 L 409.209 183 430.566 183 L 451.923 183 452.911 179.250 C 457.224 162.871, 463 138.707, 463 137.040 C 463 135.049, 462.477 135, 441.167 135 L 419.334 135 417.167 145.250 M 123.468 201.250 C 124.190 204.464, 132 249.289, 132 250.222 C 132 250.650, 140.784 251, 151.519 251 L 171.038 251 170.536 248.750 C 169.802 245.463, 161 199.937, 161 199.430 C 161 199.193, 152.441 199, 141.981 199 L 122.962 199 123.468 201.250 M 178.333 201.250 C 178.635 202.488, 180.741 213.175, 183.012 225 C 185.283 236.825, 187.383 247.512, 187.679 248.750 C 188.210 250.970, 188.438 251, 204.546 251 L 220.874 251 220.429 247.750 C 220.037 244.898, 216 200.946, 216 199.540 C 216 199.243, 207.401 199, 196.892 199 L 177.783 199 178.333 201.250 M 233.314 204.250 C 233.638 207.137, 234.684 218.838, 235.639 230.250 L 237.375 251 255.188 251 L 273 251 273 225 L 273 199 252.862 199 L 232.725 199 233.314 204.250 M 290 225 L 290 251 306.912 251 L 323.824 251 324.405 247.250 C 324.725 245.188, 325.892 234.725, 326.999 224 C 328.106 213.275, 329.223 203.262, 329.481 201.750 L 329.950 199 309.975 199 L 290 199 290 225 M 346.571 200.250 C 346.369 200.938, 345.228 210.950, 344.035 222.500 C 342.842 234.050, 341.614 245.188, 341.305 247.250 L 340.744 251 359.213 251 L 377.682 251 382.420 228.250 C 385.026 215.738, 387.536 204.037, 387.998 202.250 L 388.839 199 367.888 199 C 351.990 199, 346.849 199.301, 346.571 200.250 M 405.603 200.750 C 405.057 202.550, 395 249.804, 395 250.572 C 395 250.807, 404.118 251, 415.263 251 L 435.526 251 441.282 227.250 C 444.449 214.188, 447.308 202.488, 447.636 201.250 L 448.233 199 427.184 199 C 408.006 199, 406.088 199.156, 405.603 200.750 M 138.159 284.229 C 139.748 293.178, 141.568 303.762, 142.204 307.750 L 143.359 315 163.179 315 C 181.414 315, 182.995 314.860, 182.936 313.250 C 182.900 312.288, 180.966 301.825, 178.636 290 L 174.401 268.500 154.835 268.229 L 135.269 267.959 138.159 284.229 M 195.929 291.500 L 200.484 315 213.242 315 L 226 315 226 312.374 C 226 309.341, 223.267 278.568, 222.436 272.250 L 221.877 268 206.626 268 L 191.375 268 195.929 291.500 M 239.481 273.750 C 240.714 285.979, 242.993 311.585, 242.997 313.250 C 243 314.839, 244.382 315, 258 315 L 273 315 273 291.500 L 273 268 255.950 268 L 238.901 268 239.481 273.750 M 290 291.500 L 290 315 303.455 315 L 316.909 315 317.423 311.750 C 318.052 307.779, 322.020 270.994, 322.008 269.250 C 322.002 268.302, 318.129 268, 306 268 L 290 268 290 291.500 M 339 269.003 C 339 269.961, 335.693 300.262, 334.495 310.276 L 333.924 315.053 349.130 314.776 L 364.336 314.500 369.119 292 C 371.749 279.625, 373.924 269.163, 373.951 268.750 C 373.978 268.337, 366.125 268, 356.500 268 C 345.465 268, 339 268.371, 339 269.003 M 389.008 278.750 C 387.770 284.663, 385.535 295.238, 384.042 302.250 L 381.328 315 400.576 315 L 419.823 315 425.412 291.923 C 428.485 279.230, 431 268.655, 431 268.423 C 431 268.190, 422.059 268, 411.130 268 L 391.261 268 389.008 278.750 M 155.921 410.367 C 148.382 413.062, 143.733 418.357, 142.061 426.149 C 139.867 436.382, 144.516 446.470, 153.314 450.566 C 168.341 457.562, 183.956 447.591, 183.956 431 C 183.956 415.680, 169.932 405.358, 155.921 410.367 M 327.759 410.423 C 321.893 412.517, 319.309 414.617, 316.296 419.743 C 310.912 428.902, 313.243 442.366, 321.241 448.304 C 336.159 459.380, 355.956 449.513, 355.956 431 C 355.956 420.829, 349.719 412.426, 340.436 410.088 C 334.925 408.701, 332.398 408.767, 327.759 410.423" stroke="none" fill="#fff" fill-rule="evenodd"/></svg>