<svg xmlns="http://www.w3.org/2000/svg" width="512" height="512" viewBox="0 0 512 512" version="1.1"><path d="" stroke="none" fill="#fff" fill-rule="evenodd"/><path d="M 307.840 50.839 C 176.995 85.975, 118.539 102.084, 117.090 103.405 C 112.537 107.556, 116.071 116, 122.360 116 C 123.862 116, 144.439 110.825, 168.086 104.500 C 191.733 98.175, 211.180 93, 211.300 93 C 211.421 93, 208.677 96.015, 205.204 99.700 C 193.783 111.816, 186.659 124.339, 181.304 141.716 C 178.787 149.883, 178.597 151.764, 178.597 168.500 C 178.597 185.297, 178.781 187.101, 181.352 195.500 C 186.070 210.921, 191.965 221.653, 203.374 235.600 L 205.909 238.699 191.882 250.024 L 177.855 261.349 114.956 198.456 L 52.056 135.562 72.278 130.232 C 89.055 125.810, 92.899 124.457, 94.842 122.288 C 96.642 120.280, 97.047 118.958, 96.589 116.587 C 95.887 112.944, 92.706 110, 89.473 110 C 86.333 110, 42.180 121.863, 38.767 123.624 C 33.882 126.144, 31.595 133.352, 34.104 138.316 C 34.711 139.517, 59.167 164.575, 88.449 194 L 141.690 247.500 121.212 323.645 L 100.735 399.789 102.617 403.645 C 103.864 406.198, 105.821 408.145, 108.412 409.410 L 112.324 411.319 184.412 392.010 C 224.060 381.389, 258.441 372.235, 260.813 371.667 L 265.127 370.634 318.313 423.713 C 347.566 452.906, 372.483 477.289, 373.684 477.896 C 378.655 480.409, 386.913 477.636, 389.006 472.752 C 389.536 471.514, 401.202 428.500, 414.929 377.168 C 434.270 304.843, 439.685 283.303, 438.989 281.470 C 436.848 275.839, 428.586 274.525, 425.582 279.337 C 424.839 280.527, 413.496 321.665, 400.375 370.756 L 376.518 460.013 313.758 397.259 C 279.241 362.744, 251.111 334.202, 251.249 333.832 C 251.715 332.582, 487.239 43.906, 487.544 44.211 C 487.710 44.377, 475.506 90.556, 460.423 146.832 C 445.340 203.107, 433 249.931, 433 250.886 C 433 253.265, 436.512 256.840, 439.615 257.618 C 442.714 258.396, 447.142 255.459, 448.238 251.898 C 452.492 238.078, 505.378 40.849, 509.440 23.656 C 512.842 9.260, 512.772 7.572, 508.600 3.400 C 505.728 0.528, 504.525 0.014, 500.850 0.089 C 498.457 0.138, 411.603 22.975, 307.840 50.839 M 384 46.579 C 338.075 58.919, 299.825 69.276, 299 69.596 C 298.161 69.921, 301.214 71.259, 305.925 72.631 C 340.429 82.685, 368.176 112.507, 375.389 147.292 C 376.050 150.477, 377.020 152.969, 377.545 152.830 C 378.318 152.625, 408.255 116.246, 456.406 57.002 L 462.500 49.504 452 58.098 C 407.510 94.512, 390.235 108.392, 388.315 109.266 C 383.325 111.540, 376.918 105.438, 378.345 99.769 C 378.710 98.319, 394.832 84.534, 422.999 61.589 C 461.457 30.259, 469.247 23.737, 467.809 24.072 C 467.639 24.111, 429.925 34.240, 384 46.579 M 262.500 85.503 C 228.723 91.886, 202.229 117.754, 194.907 151.500 C 193.232 159.218, 193.232 177.782, 194.907 185.500 C 202.398 220.026, 230.304 246.485, 265 251.959 C 279.425 254.235, 297.470 252.214, 300.828 247.946 C 301.886 246.601, 316.083 229.158, 332.376 209.185 L 362 172.870 362 166.393 C 362 151.873, 356.643 135.199, 347.625 121.644 C 329.107 93.813, 295.047 79.353, 262.500 85.503 M 271.982 100.814 C 270.363 102.124, 269.607 104.040, 269.253 107.723 C 268.778 112.667, 268.634 112.868, 264.440 114.470 C 259.156 116.488, 252.827 122.459, 249.909 128.179 C 247.187 133.515, 246.298 143.422, 247.997 149.491 C 249.691 155.538, 255.512 161.928, 262.929 165.882 L 269 169.117 269 188.559 C 269 210.977, 269.434 210.226, 259.500 205 C 252.631 201.387, 249.096 201.205, 246.174 204.314 C 242.711 208.001, 243.289 212.268, 247.750 215.947 C 251.627 219.145, 259.030 222.352, 265.214 223.512 C 268.640 224.155, 268.780 224.354, 269.252 229.275 C 269.815 235.132, 272.413 238, 277.156 238 C 281.845 238, 285 234.091, 285 228.280 L 285 223.469 290.188 221.627 C 297.498 219.031, 305.931 210.435, 308.960 202.493 C 312.278 193.795, 312.123 183.817, 308.558 176.530 C 305.178 169.620, 298.392 163.615, 290.864 160.870 L 285 158.732 285 143.866 C 285 134.627, 285.378 129, 285.999 129 C 286.549 129, 289.234 130.238, 291.967 131.750 C 296.648 134.341, 297.095 134.411, 299.717 132.964 C 308.712 127.998, 304.407 118.804, 290.858 114.045 C 285.560 112.184, 285.494 112.110, 284.939 107.443 C 284.036 99.850, 277.379 96.444, 271.982 100.814 M 266.611 131.528 C 263.679 134.466, 261.767 139.946, 262.434 143.502 C 263.013 146.587, 267.443 151.890, 268.532 150.801 C 268.830 150.504, 268.944 145.620, 268.786 139.948 C 268.506 129.836, 268.463 129.672, 266.611 131.528 M 285 190.970 L 285 207.136 287.929 205.050 C 292.834 201.558, 295.433 196.319, 295.469 189.855 C 295.504 183.452, 293.746 180.283, 288.250 176.840 L 285 174.804 285 190.970 M 203.749 260.394 C 196.186 266.595, 189.791 271.876, 189.537 272.129 C 189.284 272.383, 200.439 283.947, 214.327 297.827 L 239.578 323.063 260.539 297.368 C 272.068 283.236, 282.009 270.959, 282.631 270.087 C 283.637 268.674, 282.759 268.481, 274.631 268.323 C 257.587 267.993, 241.284 263.186, 225.948 253.969 C 221.401 251.236, 217.640 249.027, 217.590 249.060 C 217.541 249.093, 211.312 254.193, 203.749 260.394 M 138.660 318.585 C 130.013 350.862, 123.084 377.417, 123.263 377.596 C 123.442 377.775, 140.332 361.174, 160.796 340.704 L 198.004 303.487 176.193 281.693 L 154.383 259.899 138.660 318.585 M 171.500 352 C 151.156 372.350, 134.747 389, 135.036 389 C 135.325 389, 161.568 382.025, 193.355 373.500 C 225.142 364.975, 251.449 358, 251.816 358 C 252.183 358, 242.815 348.325, 231 336.500 C 219.185 324.675, 209.286 315, 209.004 315 C 208.721 315, 191.844 331.650, 171.500 352 M 29.928 419.588 C 4.737 444.728, 0 449.905, 0 452.293 C 0 456.260, 1.439 458.525, 4.859 459.942 C 7.265 460.938, 8.309 460.886, 10.647 459.651 C 12.216 458.823, 26.212 445.382, 41.750 429.782 C 66.570 404.863, 70 401.043, 70 398.320 C 70 394.283, 67.328 391.166, 63.178 390.364 C 59.917 389.733, 59.308 390.268, 29.928 419.588 M 30.728 470.788 C -1.513 503.095, -1.715 503.375, 3.455 508.545 C 5.052 510.143, 7.042 511, 9.154 511 C 12.072 511, 15.349 508.054, 41.699 481.746 C 69.679 453.810, 71 452.323, 71 448.746 C 71 443.993, 68.190 441, 63.728 441 C 60.770 441, 57.599 443.863, 30.728 470.788 M 82.185 470.250 C 66.567 485.788, 53.213 499.818, 52.509 501.430 C 50.990 504.908, 52.202 509.503, 55.039 511.021 C 60.480 513.933, 61.077 513.471, 92.272 482.212 C 124.513 449.905, 124.715 449.625, 119.545 444.455 C 117.945 442.854, 115.959 442, 113.836 442 C 110.910 442, 107.714 444.852, 82.185 470.250" stroke="none" fill="#fff" fill-rule="evenodd"/></svg>