<svg xmlns="http://www.w3.org/2000/svg" width="512" height="512" viewBox="0 0 512 512" version="1.1"><path d="" stroke="none" fill="#080404" fill-rule="evenodd"/><path d="M 394.069 14.088 C 360.660 20.642, 334.313 44.499, 323.488 78 C 319.808 89.392, 318.884 109.371, 321.451 122.090 C 326.982 149.497, 345.398 173.584, 370.500 186.245 C 383.312 192.707, 404.061 196.815, 417.500 195.550 C 433.431 194.051, 450.698 188.074, 462.673 179.912 C 469.657 175.153, 480.537 164.458, 485.633 157.344 C 498.415 139.497, 504.650 115.463, 502.065 94 C 499.634 73.817, 490.559 54.828, 476.500 40.501 C 463.236 26.986, 447.476 18.245, 429.778 14.589 C 421.464 12.872, 401.684 12.595, 394.069 14.088 M 50.500 17.156 C 36.808 19.787, 20.941 31.788, 14.245 44.581 C 7.561 57.353, 8 42.326, 8 258.284 L 8 454.147 10.519 461.652 C 13.656 470.995, 18.126 478.019, 25.102 484.565 C 31.868 490.914, 37.607 494.248, 46.355 496.912 C 53.112 498.970, 54.655 499, 153.924 499 C 264.851 499, 258.435 499.341, 271.488 492.753 C 279.095 488.914, 289.540 478.430, 293.752 470.407 C 298.282 461.776, 299.968 453.490, 299.985 439.765 L 300 428.030 393.829 427.765 L 487.658 427.500 492.552 424.474 C 495.586 422.598, 498.598 419.586, 500.474 416.552 L 503.500 411.658 503.798 321.579 C 504.009 257.866, 503.772 230.384, 502.989 227.688 C 501.480 222.488, 495.532 216.168, 489.500 213.353 L 484.500 211.020 392.250 211.010 L 300 211 300 137.210 C 300 56.232, 300.102 57.763, 293.907 45.397 C 287.942 33.488, 277.536 24.313, 264.015 19.041 L 257.500 16.500 156.500 16.348 C 95.400 16.256, 53.525 16.575, 50.500 17.156 M 400.809 30.069 C 392.300 31.225, 379.759 35.789, 371.739 40.649 C 363.381 45.714, 352.305 56.954, 347.194 65.557 C 322.041 107.895, 343.001 161.394, 390.433 175.924 C 429.671 187.944, 472.482 163.558, 483.638 122.831 C 486.029 114.100, 486.077 94.810, 483.730 86 C 473.903 49.121, 438.138 24.997, 400.809 30.069 M 49.813 34.916 C 42.754 37.691, 38.557 40.587, 33.597 46.103 C 27.364 53.036, 24.970 60.003, 24.269 73.250 L 23.700 84 153.434 84 L 283.167 84 282.834 72.221 C 282.524 61.295, 282.265 59.966, 279.250 53.849 C 275.397 46.030, 269.114 39.882, 261.175 36.160 L 255.500 33.500 155 33.287 C 59.443 33.084, 54.269 33.164, 49.813 34.916 M 406.427 45.309 C 404.375 47.074, 403.631 48.788, 403.265 52.591 C 402.805 57.377, 402.623 57.632, 398.399 59.378 C 392.993 61.614, 385.793 69.410, 384.189 74.764 C 382.130 81.635, 382.681 89.967, 385.578 95.780 C 389.867 104.387, 396.475 108.733, 410.095 111.905 C 422.408 114.772, 427.247 119.492, 425.385 126.823 C 424.199 131.495, 420.541 133.985, 413.852 134.676 C 404.453 135.646, 399.329 131.974, 397.627 123.048 C 396.661 117.979, 393.429 115, 388.898 115 C 386.035 115, 384.654 115.625, 383.073 117.635 C 376.881 125.506, 385.464 143.512, 397.971 148.892 C 402.360 150.780, 403 151.425, 403 153.963 C 403 160.920, 406.303 164.917, 412.095 164.968 C 416.933 165.011, 419.320 162.213, 419.980 155.727 C 420.461 151.007, 420.738 150.558, 423.635 149.811 C 429.566 148.281, 436.247 142.845, 439.213 137.136 C 444.724 126.528, 442.229 111.798, 433.645 104.261 C 428.419 99.673, 425.259 98.255, 414.988 95.890 C 401.733 92.838, 397.848 88.756, 400.176 80.324 C 401.459 75.680, 405.998 73.009, 412.615 73.004 C 418.298 73, 423 75.726, 423 79.026 C 423 82.293, 425.291 86.099, 428.145 87.575 C 431.991 89.564, 433.398 89.377, 436.923 86.411 C 440.395 83.490, 440.897 79.753, 438.778 72.616 C 437.162 67.174, 429.558 59.547, 424.125 57.919 C 420.106 56.715, 420 56.570, 420 52.296 C 420 44.108, 412.382 40.186, 406.427 45.309 M 116 48.275 C 110.567 51.065, 109.915 58.215, 114.747 62.016 C 117.160 63.913, 118.882 64, 154.180 64 L 191.091 64 193.545 61.545 C 196.568 58.523, 196.814 53.228, 194.089 49.861 L 192.178 47.500 155.339 47.246 C 126.907 47.049, 117.929 47.284, 116 48.275 M 24 257 L 24 413 153.500 413 L 283 413 283 257 L 283 101 153.500 101 L 24 101 24 257 M 137.660 161.988 C 129.222 163.508, 118.760 167.055, 110.500 171.196 C 66.312 193.346, 46.125 244.551, 63.093 291.444 C 70.984 313.253, 89.316 333.677, 110.500 344.265 C 164.047 371.028, 228.304 343.535, 246.409 286.115 C 257.049 252.371, 247.882 215.153, 222.643 189.623 C 210.645 177.487, 194.758 168.258, 178.284 163.855 C 169.572 161.526, 146.187 160.451, 137.660 161.988 M 134.021 180.068 C 110.360 186.262, 90.231 203.400, 80.335 225.776 C 75.543 236.613, 73.726 247.178, 74.278 261 C 75.013 279.406, 79.518 292.009, 90.562 306.560 C 118.849 343.828, 173.934 348.365, 208.083 316.240 C 254.709 272.377, 235.048 195.772, 173.090 179.898 C 162.878 177.282, 144.355 177.363, 134.021 180.068 M 177.177 211.250 C 174.486 212.713, 166.520 220.842, 154.393 234.500 C 144.138 246.050, 135.385 255.640, 134.943 255.810 C 134.501 255.981, 132.368 254.521, 130.204 252.565 C 124.948 247.816, 120.253 246, 113.238 246 C 97.022 246, 86.517 262.709, 93.106 278.024 C 94.820 282.008, 97.994 285.390, 110.175 296.209 C 130.099 313.905, 135.038 316.134, 144.026 311.487 C 147.160 309.866, 204.824 245.125, 207.116 240.653 C 212.737 229.688, 207.538 215.048, 196.368 210.380 C 191.144 208.198, 182.030 208.611, 177.177 211.250 M 183.137 227.750 C 181.546 229.262, 171.172 240.733, 160.086 253.240 C 147.008 267.993, 139.037 276.204, 137.390 276.617 C 133.955 277.479, 131.592 276.228, 124.254 269.663 C 115.951 262.234, 114.641 261.585, 111.231 263.212 C 109.121 264.218, 108.431 265.332, 108.198 268.110 C 107.907 271.583, 108.362 272.118, 121.579 283.852 C 129.105 290.534, 135.575 296, 135.959 296 C 137.326 296, 192.506 232.981, 192.811 231.070 C 193.162 228.878, 189.779 225, 187.516 225 C 186.699 225, 184.729 226.238, 183.137 227.750 M 300 237.500 L 300 247 364.045 247 L 428.091 247 430.390 249.299 C 431.925 250.834, 432.925 253.378, 433.400 256.955 C 435.029 269.236, 443.114 277.279, 455.278 278.719 C 458.722 279.127, 461.175 280.084, 462.710 281.619 L 465 283.909 465 319.344 C 465 360.784, 465.640 358.273, 454.481 360.609 C 442.065 363.208, 436.114 369.161, 433.525 381.572 C 431.146 392.976, 437.667 392, 363.889 392 L 300 392 300 401.500 L 300 411 391.389 411 C 479.877 411, 482.853 410.939, 485.139 409.089 L 487.500 407.177 487.790 322.839 C 487.950 276.452, 487.812 237.012, 487.484 235.194 C 487.157 233.376, 486.014 231.014, 484.944 229.944 C 483.047 228.047, 480.792 228, 391.500 228 L 300 228 300 237.500 M 300 270.567 C 300 276.925, 300.072 277.112, 302.250 276.413 C 311.128 273.565, 320.744 273.262, 329.540 275.552 C 358.257 283.030, 371.972 317.189, 356.712 343.228 C 351.409 352.277, 339.629 361.138, 329.149 363.960 C 323.247 365.549, 310.513 365.379, 304.750 363.634 L 300 362.196 300 368.598 L 300 375 358.842 375 L 417.683 375 418.956 370.750 C 420.662 365.048, 426.313 356.713, 430.972 353.022 C 434.892 349.918, 444.533 345.027, 446.767 345.010 C 447.763 345.002, 447.977 339.641, 447.767 319.948 L 447.500 294.896 441.729 292.551 C 438.554 291.261, 433.880 288.503, 431.340 286.423 C 425.961 282.015, 419.323 272.238, 418.412 267.380 L 417.777 264 358.889 264 L 300 264 300 270.567 M 305.250 293.464 L 300 295.908 300 319.469 L 300 343.029 303.225 344.990 C 311.726 350.160, 324.122 349.697, 333.203 343.870 C 352.092 331.748, 349.991 303.106, 329.500 293.390 C 322.471 290.058, 312.501 290.088, 305.250 293.464 M 392.923 313.923 C 385.090 321.756, 395.250 332.850, 403.644 325.630 C 409.192 320.858, 405.636 311, 398.367 311 C 396.914 311, 394.608 312.238, 392.923 313.923 M 24.259 441.250 C 25.283 461.991, 32.660 473.665, 48.888 480.230 L 54.500 482.500 154 482.500 L 253.500 482.500 259.285 480.165 C 266.917 477.085, 275.740 468.871, 279.519 461.328 C 282.195 455.986, 282.470 454.437, 282.820 442.750 L 283.201 430 153.452 430 L 23.703 430 24.259 441.250 M 125.364 448.170 C 123.049 449.291, 121 452.963, 121 455.991 C 121 457.035, 122.085 459.151, 123.412 460.694 L 125.824 463.500 152.227 463.796 C 168.218 463.975, 179.670 463.696, 181.267 463.089 C 184.598 461.822, 187.255 456.864, 186.409 453.493 C 186.060 452.104, 184.640 450.075, 183.253 448.984 C 180.875 447.114, 179.202 447.004, 154.115 447.068 C 137.973 447.109, 126.660 447.542, 125.364 448.170" stroke="none" fill="#fff" fill-rule="evenodd"/></svg>