<svg xmlns="http://www.w3.org/2000/svg" xmlns:xlink="http://www.w3.org/1999/xlink" viewBox="0,0,256,256" width="48px" height="48px"><g fill="#49024f" fill-rule="nonzero" stroke="none" stroke-width="1" stroke-linecap="butt" stroke-linejoin="miter" stroke-miterlimit="10" stroke-dasharray="" stroke-dashoffset="0" font-family="none" font-weight="none" font-size="none" text-anchor="none" style="mix-blend-mode: normal"><g transform="scale(5.33333,5.33333)"><path d="M6,19c-6.002,-0.001 -6.029,4.529 -5.998,5.704c0,0 -0.294,5.296 6.058,5.296c5.458,0 5.726,-3.323 5.726,-3.323l-2.51,0.005c0,0 -0.489,1.831 -3.205,1.781c-3.492,-0.063 -3.628,-3.463 -3.628,-3.463h9.557c0,-0.001 0.643,-5.999 -6,-6zM2.523,23.515c0,0 0.172,-2.965 3.624,-2.966c3.44,-0.001 3.44,2.966 3.44,2.966z"></path><path d="M18.825,19c-3.058,-0.017 -4.374,1.719 -4.374,1.719v-5.719h-2.451v15h2.316l0.102,-1.735c0,0 1.111,1.735 4.356,1.735c3.246,0 5.809,-1.898 5.878,-5.416c0.067,-3.52 -2.768,-5.568 -5.827,-5.584zM18.264,28.431c-3.862,0.046 -3.799,-3.888 -3.799,-3.888c0,0 -0.141,-3.873 3.793,-3.97c3.933,-0.097 3.875,4.051 3.875,4.051c0,0 -0.007,3.76 -3.869,3.807z"></path><path d="M34.437,19h2.806l4.106,8.185l4.114,-8.185h2.537l-7.427,15h-2.714l2.15,-4.463z"></path><path d="M30.724,19.017c0,0 -4.883,-0.416 -5.544,2.983h2.588c0.132,-0.415 0.674,-1.469 2.785,-1.431c2.484,0.044 2.937,1.003 2.923,2.431c0,0 -2.129,0.006 -2.84,0.009c-1.28,0.006 -5.761,0.345 -6.179,2.945c-0.498,3.093 2.399,4.058 4.666,4.045c2.266,-0.012 3.559,-0.659 4.52,-1.818l0.103,1.83l2.254,-0.011v-6.805c-0.064,-1.163 0,-3.971 -5.276,-4.178zM29.546,28.511c0,0 -2.456,0.003 -2.6,-1.867c-0.154,-1.996 3.778,-2.078 3.778,-2.078l2.778,-0.003c-0.001,0.001 0.449,4.004 -3.956,3.948z"></path></g></g></svg>