<svg xmlns="http://www.w3.org/2000/svg" xmlns:xlink="http://www.w3.org/1999/xlink" viewBox="0,0,256,256" width="48px" height="48px"><g fill="#49024f" fill-rule="nonzero" stroke="none" stroke-width="1" stroke-linecap="butt" stroke-linejoin="miter" stroke-miterlimit="10" stroke-dasharray="" stroke-dashoffset="0" font-family="none" font-weight="none" font-size="none" text-anchor="none" style="mix-blend-mode: normal"><g transform="scale(5.33333,5.33333)"><path d="M22.75,21.357h1.444l0.816,-1.357h-1.445zM14.75,29c-1.228,0 -2.757,0.13 -4.5,0.625c-2.626,0.746 -4.25,1.388 -5.625,1.388c-0.625,0 -1.12,-0.197 -1.694,-0.601c-0.681,-0.537 -0.97,-1.594 -0.931,-2.787c0.007,-0.228 0.026,-0.46 0.056,-0.694c0.435,-2.383 1.722,-4.676 3.811,-7.219c1.166,-1.323 2.248,-2.459 3.677,-2.914c1.095,-0.286 0.968,0.394 0.836,0.52c-0.755,0 -1.108,0.635 -1.13,1.14c-0.015,0.381 0.169,0.542 0.401,0.542c0.724,0 1.349,-1 1.349,-1.75c0,-0.25 0,-1.25 -1.25,-1.25c-1.221,0 -2.361,0.606 -3.419,1.267c-2.458,1.739 -4.425,4.148 -5.538,6.786c-0.642,1.591 -1.222,3.871 -0.352,5.726c0.614,1.175 1.809,2.221 3.559,2.221c1.875,0 2.924,-0.518 3.875,-0.75c0.951,-0.233 5.526,-2.214 7.125,0.75c0,0 0.625,-1 2.25,-1c0.875,0 2.602,0.142 3.75,1c-0.382,-0.585 -2.25,-3 -6.25,-3zM30,25.502c0,-1.281 -0.626,-1.498 -1.048,-1.498c-1.141,0 -2.325,1.052 -2.941,2.531c-0.324,0.76 -0.511,1.594 -0.636,2.469c0.373,-0.449 1.155,-1.269 2.019,-1.672c0,0 0.067,-0.682 0.667,-1.534c0.201,-0.313 0.582,-0.796 1.022,-0.794c0.056,0 0.112,0.008 0.169,0.025c0.184,0.064 0.274,0.306 0.274,0.656c0,0.496 -0.18,1.027 -0.527,1.757c-0.438,0.916 -1.294,1.834 -1.972,2.466c-0.446,0.395 -1.051,0.855 -1.651,0.855c-1.126,-0.001 -1.376,-0.888 -1.376,-2.013c0,-1.625 1.32,-4.197 2.763,-6.441c1.066,-1.493 2.147,-3.014 3.487,-4.176c0.53,-0.46 1.625,-1.414 2.5,-1.414c0.152,0 0.296,0.024 0.433,0.076c-0.974,0.611 -3.183,2.215 -3.183,4.205c0,0.756 0.59,1 0.875,1c1.244,0 3.125,-1.795 3.125,-4.5v-0.423c0,0 0.125,-0.073 0.5,-0.073c0.625,0 1.383,0.314 1.383,0.314c0.799,0.276 2.312,1.282 3.144,1.75c0.384,-0.448 0.775,-0.882 1.177,-1.293c-0.548,-0.292 -1.518,-0.807 -2.204,-1.15c-0.88,-0.44 -1.734,-0.622 -2.375,-0.622c-1.25,0 -1.917,0.503 -1.917,0.503c-0.289,-0.329 -0.684,-0.503 -1.083,-0.503c-1.125,0 -2.046,0.564 -2.625,0.886c-1.56,0.868 -2.954,2.273 -4.552,4.307c-1.611,2.185 -2.611,4.071 -3.143,5.935c-0.183,0.559 -0.309,1.236 -0.304,1.911c0.006,0.84 0.216,1.677 0.771,2.284c0.446,0.487 0.968,0.663 1.479,0.673c0.465,0.009 0.921,-0.12 1.301,-0.279c1.729,-0.888 3.468,-2.805 4.242,-5.007c0.103,-0.366 0.206,-0.788 0.206,-1.211zM33.5,17.5c0,2.442 -1.724,4 -2.624,4c-0.004,0 -0.376,-0.028 -0.376,-0.5c0,-1.754 2.126,-3.265 3,-3.812zM45.755,17.561v0c-0.683,0.405 -1.389,0.7 -2.151,0.846c-0.356,0.313 -0.643,0.583 -0.648,0.588c-0.258,0.27 -0.544,0.61 -0.846,0.999c1.587,-0.027 3.127,-0.945 4.062,-1.832c1.208,-1.096 1.828,-2.162 1.828,-2.162c0,0 -0.906,0.768 -2.245,1.561z"></path><path d="M42.347,29.125c0.257,-0.471 2.653,-5.125 2.653,-5.125h-1.536c-0.013,0.022 -0.143,0.268 -0.264,0.499c0,0 -0.13,-0.498 -0.797,-0.498c-0.291,0 -0.603,0.089 -0.845,0.232c-1.651,1.008 -2.759,2.911 -3.71,4.463c0,0 -1.099,1.804 -1.599,1.804c-0.249,0 -0.249,-0.271 -0.249,-0.5c0,-0.75 0.48,-2.166 0.872,-3.05c0.798,-0.577 1.708,-1.333 2.535,-2.161c1.477,-1.473 2.978,-3.094 3.592,-3.88c-0.188,0.033 -0.387,0.043 -0.583,0.057c-1.755,2.008 -4.261,4.569 -5.065,4.977c0.38,-0.953 2.832,-5.5 4.919,-7.675c0,0 1.73,-1.642 2.119,-1.647c0.043,-0.005 0.178,0.01 0.178,0.139c0,0.089 -0.016,0.191 -0.039,0.298c0.153,-0.065 0.308,-0.148 0.463,-0.23c0.002,-0.026 0.008,-0.051 0.009,-0.077c0.003,-0.109 -0.003,-0.217 -0.02,-0.323c-0.034,-0.211 -0.18,-0.371 -0.371,-0.408c-0.065,-0.013 -0.13,-0.019 -0.196,-0.02c-0.566,-0.005 -1.142,0.417 -1.631,0.766l-0.022,0.014c-2.806,2.294 -5.542,5.783 -7.614,10.298c-0.132,0.105 -0.579,0.218 -0.756,0.2c0.2,-0.43 0.444,-0.991 0.568,-1.604c0.021,-0.182 0.042,-0.367 0.042,-0.548c0,-0.39 -0.09,-0.756 -0.427,-1.009c-0.163,-0.084 -0.342,-0.117 -0.52,-0.117c-0.251,0.001 -0.499,0.071 -0.692,0.162c-1.474,0.634 -2.575,2.2 -3.37,3.49c-0.427,0.819 -0.854,1.697 -0.972,2.702c-0.011,0.1 -0.017,0.196 -0.019,0.288c-0.016,0.625 0.161,1.039 0.537,1.26c0.444,0.235 1.003,-0.009 1.223,-0.127c1.493,-0.815 2.536,-2.449 3.358,-3.942l0.027,-0.054c0.147,-0.009 0.476,-0.032 0.745,-0.105c0.005,0 -0.891,1.577 -0.891,2.952c0,0.413 0.068,0.748 0.269,1.01c0.199,0.256 0.448,0.368 0.724,0.365c0.706,-0.007 1.591,-0.748 2.275,-1.643c-0.175,1.278 0.343,1.639 0.85,1.643c0.085,0.001 0.171,-0.014 0.252,-0.031c0.649,-0.183 1.373,-0.907 1.708,-1.278c-0.03,0.126 -0.077,0.399 -0.077,0.558c0,0.375 0.25,0.748 0.75,0.748c0.625,0 1.422,-0.694 1.625,-0.873c1.099,-0.973 2.295,-2.544 2.625,-3.125h-0.512c-0.238,0.375 -1.176,1.537 -1.863,2.107c-0.189,0.158 -0.425,0.393 -0.625,0.393c-0.116,0 -0.211,-0.125 -0.153,-0.306c0.089,-0.283 0.296,-0.696 0.5,-1.069zM30.921,30.281v0c-0.08,-0.122 -0.106,-0.256 -0.108,-0.4c-0.015,-0.887 0.906,-2.477 1.556,-3.343h0.001c0.273,0.618 0.89,1.016 1.262,1.184c-0.462,1.068 -2.049,3.356 -2.711,2.559zM33.893,27.244c-0.044,0.032 -0.822,-0.24 -0.973,-0.987c-0.128,-0.643 0.3,-1.145 0.713,-1.399c0.177,-0.145 0.445,-0.195 0.641,-0.122c0.182,0.127 0.231,0.353 0.231,0.597c0,0.15 -0.019,0.303 -0.036,0.444c0,0 -0.003,0.027 -0.004,0.032c-0.129,0.503 -0.327,0.996 -0.572,1.435zM41.299,28.155c-0.3,0.52 -0.616,1.033 -0.965,1.518c-0.073,0.101 -0.294,0.393 -0.407,0.494c-0.159,0.143 -0.402,0.302 -0.655,0.245c-0.076,-0.017 -0.123,-0.128 -0.136,-0.206c-0.012,-0.563 0.231,-1.085 0.467,-1.594l0.06,-0.133c0.678,-1.182 1.369,-2.486 2.527,-3.452c0.195,-0.147 0.407,-0.27 0.63,-0.174c0.043,0.042 0.085,0.111 0.099,0.183c-0.573,1.103 -1.417,2.728 -1.62,3.119zM19.625,26.107c-0.189,0.158 -0.425,0.393 -0.625,0.393c-0.116,0 -0.211,-0.125 -0.153,-0.306c0.089,-0.283 0.296,-0.696 0.5,-1.069c0.257,-0.471 2.653,-5.125 2.653,-5.125h-1.536c-0.013,0.022 -0.143,0.268 -0.264,0.499c0,0 -0.13,-0.498 -0.797,-0.498c-0.291,0 -0.603,0.089 -0.845,0.232c-1.651,1.008 -2.759,2.911 -3.71,4.463c0,0 -0.143,0.233 -0.349,0.531c-0.302,0.417 -0.685,0.793 -0.931,1.024c0,0 -1.169,1.109 -1.672,0.292c-0.184,-0.343 -0.127,-0.845 -0.024,-1.174c0.586,-1.756 1.511,-3.35 2.659,-4.312c0.324,-0.266 0.676,-0.343 0.851,-0.23c0.167,0.104 0.145,0.421 0.04,0.597c-0.267,-0.009 -0.482,0.077 -0.656,0.266c-0.252,0.279 -0.392,0.55 -0.392,0.81c0,0.429 0.201,0.5 0.377,0.5c0.534,0 1.247,-1.19 1.245,-2.015c0.002,-0.36 -0.192,-0.668 -0.451,-0.826c-0.191,-0.12 -0.431,-0.158 -0.672,-0.158c-0.518,0 -1.034,0.353 -1.225,0.499c-0.409,0.312 -0.847,0.76 -1.169,1.135c-0.362,0.421 -0.882,0.871 -1.306,1.138c-0.297,0.189 -0.627,0.227 -0.627,0.227c0,0 0.454,-0.875 0.454,-1.875c0,-0.5 -0.094,-0.734 -0.391,-0.962v0c-0.888,-0.614 -2.673,0.56 -4.103,2.573c-1.307,1.806 -1.872,3.905 -1.258,4.875c0.914,1.142 2.611,-0.519 3.332,-1.408l0.093,-0.104c0.491,-0.555 0.87,-1.223 1.237,-1.865c0,0 0.337,-0.587 0.353,-0.614c0.179,-0.011 0.449,-0.064 0.742,-0.19c-0.003,0.015 -1.005,1.695 -1.005,2.945c0,0.291 0.042,1.273 1.021,1.593c1.246,0.22 2.354,-0.593 3.247,-1.611c-0.175,1.278 0.343,1.639 0.85,1.643c0.085,0.001 0.171,-0.014 0.252,-0.031c0.649,-0.183 1.373,-0.907 1.708,-1.278c-0.031,0.127 -0.078,0.4 -0.078,0.559c0,0.375 0.25,0.748 0.75,0.748c0.625,0 1.422,-0.694 1.625,-0.873c1.099,-0.973 2.295,-2.544 2.625,-3.125h-0.512c-0.238,0.375 -1.177,1.537 -1.863,2.107zM9.029,24.795c-0.388,0.546 -0.873,1.233 -1.48,1.562c-0.18,0.063 -0.428,0.104 -0.555,-0.063c-0.268,-0.339 -0.13,-0.808 -0.018,-1.187l0.04,-0.135c0.144,-0.41 0.325,-0.799 0.525,-1.171c0.25,-0.462 0.729,-1.209 0.831,-1.326c0.001,0.005 0.003,0.005 0.004,0.014c0.312,0.632 0.898,0.925 1.335,1.061c0.003,0 0.023,0.006 0.023,0.006c0.001,0.012 -0.705,1.239 -0.705,1.239zM10.027,23c-0.527,0 -1.02,-0.408 -1.113,-0.742c-0.128,-0.65 0.399,-1.16 0.631,-1.345c0.139,-0.102 0.327,-0.172 0.497,-0.172c0.392,0 0.445,0.415 0.445,0.66c-0.001,0.684 -0.347,1.398 -0.46,1.599zM17.334,25.672c-0.073,0.101 -0.294,0.393 -0.407,0.494c-0.159,0.143 -0.402,0.302 -0.655,0.245c-0.076,-0.017 -0.123,-0.128 -0.136,-0.206c-0.012,-0.563 0.231,-1.085 0.467,-1.594l0.06,-0.133c0.678,-1.182 1.369,-2.486 2.527,-3.452c0.195,-0.147 0.407,-0.27 0.63,-0.174c0.043,0.042 0.085,0.111 0.099,0.183c-0.574,1.102 -1.418,2.728 -1.621,3.118c-0.299,0.522 -0.615,1.035 -0.964,1.519z"></path></g></g></svg>