<svg xmlns="http://www.w3.org/2000/svg" xmlns:xlink="http://www.w3.org/1999/xlink" viewBox="0,0,256,256" width="50px" height="50px"><g fill="#49024f" fill-rule="nonzero" stroke="none" stroke-width="1" stroke-linecap="butt" stroke-linejoin="miter" stroke-miterlimit="10" stroke-dasharray="" stroke-dashoffset="0" font-family="none" font-weight="none" font-size="none" text-anchor="none" style="mix-blend-mode: normal"><g transform="scale(5.12,5.12)"><path d="M33.62305,2v2c2.217,0 3.94141,0.62445 3.94141,1.81445c0,0.985 -1.26103,1.81641 -2.95703,1.81641c-1.725,0 -5.41891,-0.98766 -8.12891,-1.97266c-3.203,-1.232 -6.15905,-2.2168 -8.62305,-2.2168c-4.927,0 -8.37695,3.69677 -8.37695,7.88477c0,3.696 2.70931,4.92692 3.69531,5.41992l1.16992,-1.71875c-0.493,-0.493 -2.1543,-1.27328 -2.1543,-2.23828c0,-1.333 0.98522,-1.70898 3.44922,-1.70898c2.217,0 5.17323,0.9858 9.11523,2.2168c3.449,0.985 7.14423,1.42587 9.11523,1.67188h0.13086v8.46484l-3.08789,2.67578v0.24609l3.08789,2.67578v11.0293c-5.58713,3.41622 -13.14871,0.96697 -15.80859,-2.45312l9.80859,-4.78516v-0.00195v-14.65625l0.01367,-0.00586l-0.01367,-2.1582l-11.66406,5.11523c1.25072,-2.0235 3.2905,-3.95028 6.48437,-5.56445l-0.78125,-2.01172c-7.39,1.97 -14.03906,8.87 -14.03906,17.25c0,9.85 8.13,17.25 17.25,17.25c9.85,0 16.25977,-7.88953 16.25977,-16.01953h-1.94922c-0.79383,2.84422 -2.04819,4.94282 -3.56055,6.45313v-9.44531l3.28711,-2.67187v-0.24609l-3.28711,-2.67187v-8.57422c3.17847,-0.48178 6,-2.64941 6,-6.74023c0,-4.927 -4.68095,-6.12305 -8.37695,-6.12305zM21,21.24414v12.76758l-3.89258,1.89844c-1.13227,-1.9219 -3.50376,-6.97892 -1.99219,-12.07617z"></path></g></g></svg>