<svg xmlns="http://www.w3.org/2000/svg" xmlns:xlink="http://www.w3.org/1999/xlink" viewBox="0,0,256,256" width="48px" height="48px"><g fill="none" fill-rule="nonzero" stroke="none" stroke-width="1" stroke-linecap="butt" stroke-linejoin="miter" stroke-miterlimit="10" stroke-dasharray="" stroke-dashoffset="0" font-family="none" font-weight="none" font-size="none" text-anchor="none" style="mix-blend-mode: normal"><g transform="scale(5.33333,5.33333)"><path d="M45,35c0,2.209 -1.791,4 -4,4h-34c-2.209,0 -4,-1.791 -4,-4v-22c0,-2.209 1.791,-4 4,-4h34c2.209,0 4,1.791 4,4z" fill-opacity="0" fill="#fefefe"></path><path d="M15.186,19l-2.626,7.832c0,0 -0.667,-3.313 -0.733,-3.729c-1.495,-3.411 -3.701,-3.221 -3.701,-3.221l2.6,10.118v-0.002h3.161l4.371,-10.998zM17.689,30h2.871l1.736,-11h-2.907zM38.008,19h-3.021l-4.71,11h2.852l0.588,-1.571h3.596l0.306,1.571h2.613zM34.513,26.328l1.563,-4.157l0.818,4.157zM26.369,22.206c0,-0.606 0.498,-1.057 1.926,-1.057c0.928,0 1.991,0.674 1.991,0.674l0.466,-2.309c0,0 -1.358,-0.515 -2.691,-0.515c-3.019,0 -4.576,1.444 -4.576,3.272c0,3.306 3.979,2.853 3.979,4.551c0,0.291 -0.231,0.964 -1.888,0.964c-1.662,0 -2.759,-0.609 -2.759,-0.609l-0.495,2.216c0,0 1.063,0.606 3.117,0.606c2.059,0 4.915,-1.54 4.915,-3.752c0,-2.661 -3.985,-2.853 -3.985,-4.041z" fill="#49024f"></path><path d="M12.212,24.945l-0.966,-4.748c0,0 -0.437,-1.029 -1.573,-1.029c-1.136,0 -4.44,0 -4.44,0c0,0 5.661,1.672 6.979,5.777z" fill="#49024f"></path></g></g></svg>