<svg xmlns="http://www.w3.org/2000/svg" xmlns:xlink="http://www.w3.org/1999/xlink" viewBox="0,0,256,256" width="50px" height="50px"><g fill="#49024f" fill-rule="nonzero" stroke="none" stroke-width="1" stroke-linecap="butt" stroke-linejoin="miter" stroke-miterlimit="10" stroke-dasharray="" stroke-dashoffset="0" font-family="none" font-weight="none" font-size="none" text-anchor="none" style="mix-blend-mode: normal"><g transform="scale(5.12,5.12)"><path d="M27.25977,19.11719c-0.895,0 -1.72461,0.18094 -1.72461,0.71094c0,0.529 0.36478,0.68292 1.17578,0.79492c0.812,0.112 1.44569,0.10511 1.42969,0.28711c-0.018,0.2 -0.65416,0.17188 -1.16016,0.17188c-0.506,0 -1.26316,-0.08372 -1.41016,-0.13672c-0.034,0.2 -0.07617,0.53125 -0.07617,0.53125c0,0 1.22397,0.24023 1.91797,0.24023c0.694,0 2.08203,-0.15186 2.08203,-0.88086c0,-0.729 -1.38736,-0.76578 -1.69336,-0.80078c-0.306,-0.035 -1.01216,-0.05977 -1.03516,-0.25977c-0.024,-0.2 0.77559,-0.18706 1.05859,-0.16406c0.282,0.024 0.89461,0.1285 1.22461,0.1875c0.047,-0.224 0.08203,-0.48242 0.08203,-0.48242c0,0 -0.97609,-0.19922 -1.87109,-0.19922zM6.4707,19.13281c-1.09951,-0.00513 -2.56641,0.18828 -2.56641,1.25391c0,1.804 3.75391,1.21289 3.75391,1.21289l0.11719,-0.66016c0,0 -2.72461,0.37599 -2.72461,-0.54102c0.001,-1.028 2.72461,-0.62305 2.72461,-0.62305l-0.11719,-0.56445c0,0 -0.52779,-0.07505 -1.1875,-0.07813zM9.43945,19.24023v2.37891h1.11133v-0.95898h2.01953v0.95898h1.11914v-2.37891h-1.11914v0.86914h-2.01953v-0.86914zM15.49805,19.24023v2.37891h1.08984v-1.92187h1.16602c0,0 0.5957,-0.0068 0.5957,0.2832c0,0.29 -0.57422,0.29297 -0.57422,0.29297h-0.875v0.15625l1.30469,1.18945h1.42578v-0.25l-1.04883,-0.72852c0.465,0 0.89453,-0.26408 0.89453,-0.70508c0,-0.441 -0.76486,-0.69531 -1.50586,-0.69531h-1.38281zM20.28906,19.24023l1.625,1.43164l0.00781,0.94727h1.13672v-0.94141l1.57617,-1.4375h-0.86133l-1.04492,0.89648l-1.08203,-0.89648zM41.49414,19.24023v2.37891h1.0918v-1.92187h1.16406c0,0 0.5957,-0.0068 0.5957,0.2832c0,0.29 -0.57227,0.29297 -0.57227,0.29297h-0.87695v0.15625l1.30664,1.18945h1.42383v-0.25l-1.04883,-0.72852c0.465,0 0.89453,-0.26408 0.89453,-0.70508c0,-0.441 -0.76486,-0.69531 -1.50586,-0.69531h-1.38086zM31.09766,19.25977v2.35156h3.71094v-0.63477h-2.60547v-1.7168zM36.11719,19.25977v2.35156h3.8125v-0.59961h-2.6582v-0.36523h2.55664v-0.5293h-2.55664v-0.37109h2.6582v-0.48633zM1.46289,24c-0.43765,0 -0.6306,0.14118 -0.84375,0.29883c-0.21315,0.15765 -0.41611,0.37004 -0.54687,0.69922l0.92969,-0.63086c0,0 -0.98825,0.85137 -0.98828,0.85156c-0.00003,0.0002 -0.00494,0.03626 -0.00586,0.04492c-0.00185,0.01733 -0.00326,0.02464 -0.00391,0.0332c-0.00129,0.01712 -0.0013,0.03112 -0.00195,0.04688c-0.00131,0.0315 -0.00274,0.06727 -0.00195,0.10938c0.00158,0.08421 0.00848,0.19336 0.03125,0.32227c0.04554,0.25782 0.15292,0.62778 0.49023,0.95703c0.00323,0.00328 0.00649,0.00653 0.00977,0.00977c0.41442,0.39271 1.46134,1.438 2.90234,1.8418c0.00065,0 0.0013,0 0.00195,0c3.86942,1.07728 14.17244,2.86639 17.18359,3.37109c0.00195,0.00066 0.0039,0.00131 0.00586,0.00195c0.69248,0.11209 1.44993,-0.05151 2.04688,-0.50977c0.07957,-0.06055 0.51621,-0.23989 0.99414,-0.32617c0.47789,-0.08635 1.00665,-0.12109 1.33398,-0.12109c0.32733,0 0.85605,0.03481 1.33398,0.12109c0.47793,0.08628 0.91457,0.26562 0.99414,0.32617c0.59656,0.45767 1.35594,0.6215 2.04883,0.50781c0.0013,0 0.0026,0 0.00391,0c3.01116,-0.50471 13.31417,-2.29381 17.18359,-3.37109c0.00065,0 0.0013,0 0.00195,0c1.44139,-0.40391 2.48901,-1.45016 2.90234,-1.8418c0.00394,-0.00387 0.00785,-0.00778 0.01172,-0.01172c0.336,-0.32928 0.44069,-0.69807 0.48633,-0.95508c0.02282,-0.12851 0.03147,-0.23635 0.0332,-0.32031c0.00086,-0.04198 -0.00067,-0.07797 -0.00195,-0.10937c-0.00062,-0.0157 -0.00066,-0.0298 -0.00195,-0.04687c-0.00062,-0.0085 -0.00211,-0.01588 -0.00391,-0.0332c-0.0009,-0.0087 -0.00576,-0.04473 -0.00586,-0.04492c-0.00003,-0.0002 -0.05664,-0.2168 -0.05664,-0.2168l-0.00195,-0.00586c-0.13059,-0.32915 -0.33372,-0.54156 -0.54687,-0.69922c-0.21315,-0.15765 -0.4061,-0.29883 -0.84375,-0.29883h-18.14453c-0.46233,0 -0.9542,0.19078 -1.30664,0.53711c-0.00196,0.0013 -0.00391,0.0026 -0.00586,0.00391c-0.02044,0.02039 -0.60256,0.45898 -1.19727,0.45898h-2.88281h-2.88281c-0.59333,0 -1.17786,-0.43966 -1.19727,-0.45898c-0.00195,-0.00131 -0.0039,-0.00261 -0.00586,-0.00391c-0.3524,-0.34634 -0.84431,-0.53711 -1.30664,-0.53711zM2.98047,26h15.01953c0,1.1 1.9,2 3,2h8c1.1,0 3,-0.9 3,-2h15.01953c-0.36433,0.25819 -0.6368,0.55807 -0.99414,0.6582c-3.52294,0.98058 -13.98953,2.8245 -16.9707,3.32422c-0.20692,0.03395 -0.34518,0.004 -0.50977,-0.12305c-0.00195,-0.00131 -0.0039,-0.00261 -0.00586,-0.00391c-0.58139,-0.44246 -1.22104,-0.58965 -1.84961,-0.70312c-0.62857,-0.11347 -1.23579,-0.15234 -1.68945,-0.15234c-0.45367,0 -1.06089,0.03887 -1.68945,0.15234c-0.62857,0.11347 -1.26818,0.26067 -1.84961,0.70313c-0.00196,0.0013 -0.00391,0.0026 -0.00586,0.00391c-0.16181,0.12476 -0.30315,0.1561 -0.50977,0.12305c-2.98113,-0.49972 -13.44776,-2.34364 -16.9707,-3.32422h-0.00195c-0.35717,-0.10042 -0.62853,-0.40051 -0.99219,-0.6582z"></path></g></g></svg>