<svg width="145" height="32" viewBox="0 0 145 32" fill="none" xmlns="http://www.w3.org/2000/svg">
<path d="M54.894 6.42432L44.7163 25H40.2471L37.2544 6.42432H41.2754L42.7783 18.3555C42.8486 18.9971 42.9058 19.6123 42.9497 20.2012C43.0024 20.79 43.042 21.3438 43.0684 21.8623C43.2705 21.3965 43.4551 20.9834 43.6221 20.623C43.7979 20.2539 43.9473 19.9331 44.0703 19.6606L50.8335 6.42432H54.894ZM58.7252 22.7192C59.4547 22.7192 60.0567 22.4907 60.5313 22.0337C61.006 21.5679 61.3839 20.8823 61.6651 19.9771L65.2379 20.6362C64.3062 23.7212 62.065 25.2637 58.5143 25.2637C56.5807 25.2637 55.0909 24.7715 54.045 23.7871C53.0079 22.7939 52.4894 21.4185 52.4894 19.6606C52.4894 17.938 52.8365 16.3296 53.5309 14.8354C54.2252 13.3325 55.148 12.2295 56.2994 11.5264C57.4596 10.8232 58.901 10.4717 60.6236 10.4717C62.2848 10.4717 63.6119 10.8936 64.6051 11.7373C65.5982 12.5723 66.1563 13.7368 66.2794 15.231L62.5353 15.5342C62.4913 14.6992 62.2848 14.0708 61.9156 13.6489C61.5465 13.2271 61.0191 13.0161 60.3336 13.0161C59.3932 13.0161 58.6549 13.3413 58.1187 13.9917C57.5914 14.6333 57.1124 15.7759 56.6817 17.4194C56.5851 17.9292 56.5104 18.3687 56.4576 18.7378C56.4049 19.1069 56.3785 19.4058 56.3785 19.6343C56.3785 21.6909 57.1607 22.7192 58.7252 22.7192ZM77.0979 25.1318C76.2189 25.1318 75.5422 24.9473 75.0676 24.5781C74.593 24.209 74.3557 23.7212 74.3557 23.1147C74.3557 22.9478 74.3601 22.7939 74.3688 22.6533C74.3864 22.5127 74.404 22.3853 74.4216 22.271H74.3425C73.6042 23.4136 72.8747 24.2002 72.154 24.6309C71.4333 25.0527 70.5544 25.2637 69.5173 25.2637C68.2868 25.2637 67.3024 24.8989 66.5642 24.1694C65.8347 23.4312 65.4699 22.4863 65.4699 21.335C65.4699 19.709 66.028 18.4829 67.1442 17.6567C68.2692 16.8218 70.0886 16.3823 72.6022 16.3384L75.1203 16.2988C75.3049 15.4639 75.3972 14.8882 75.3972 14.5718C75.3972 14.0093 75.2565 13.5874 74.9753 13.3062C74.7028 13.0249 74.2854 12.8843 73.7229 12.8843C72.8967 12.8843 72.2814 13.0469 71.8771 13.3721C71.4729 13.6885 71.196 14.1499 71.0466 14.7563L67.5793 14.3477C67.8781 13.082 68.5505 12.1196 69.5964 11.4604C70.6511 10.8013 72.0485 10.4717 73.7888 10.4717C75.6081 10.4717 76.9396 10.7925 77.7834 11.4341C78.6359 12.0757 79.0622 13.0513 79.0622 14.3608C79.0622 14.686 78.9567 15.376 78.7458 16.4307L77.8098 21.0845C77.7395 21.5063 77.7043 21.8228 77.7043 22.0337C77.7043 22.394 77.8273 22.627 78.0734 22.7324C78.3195 22.8379 78.5437 22.8906 78.7458 22.8906C79.0358 22.8906 79.3083 22.8599 79.5632 22.7983L79.3786 24.8418C79.0095 24.9824 78.6359 25.0659 78.258 25.0923C77.8801 25.1187 77.4934 25.1318 77.0979 25.1318ZM69.2536 20.7153C69.2536 21.3306 69.425 21.814 69.7678 22.1655C70.1193 22.5083 70.5896 22.6797 71.1784 22.6797C71.8815 22.6797 72.5231 22.416 73.1032 21.8887C73.4108 21.6162 73.6745 21.2866 73.8942 20.8999C74.1228 20.5044 74.2985 20.0649 74.4216 19.5815L74.7116 18.3687H72.5759C72.0573 18.3774 71.5915 18.439 71.1784 18.5532C70.7653 18.6587 70.4138 18.8125 70.1237 19.0146C69.8425 19.208 69.6271 19.4497 69.4777 19.7397C69.3283 20.0298 69.2536 20.355 69.2536 20.7153ZM90.1443 13.7544C89.5379 13.6226 89.0369 13.5566 88.6414 13.5566C87.9207 13.5566 87.2879 13.728 86.743 14.0708C86.2068 14.4048 85.7542 14.9189 85.3851 15.6133C85.0159 16.2988 84.7259 17.1689 84.5149 18.2236L83.1834 25H79.4788L81.6014 14.0576C81.6541 13.8027 81.7024 13.5479 81.7464 13.293C81.7991 13.0381 81.8431 12.7788 81.8782 12.5151C81.931 12.2251 81.9793 11.9307 82.0232 11.6318C82.076 11.333 82.1199 11.0342 82.1551 10.7354H85.6883L85.3982 13.0029L85.2928 13.6489H85.3455C85.9871 12.4712 86.6199 11.6494 87.2439 11.1836C87.868 10.709 88.5843 10.4717 89.3929 10.4717C89.7884 10.4717 90.241 10.5332 90.7508 10.6562L90.1443 13.7544ZM93.3559 25.2769C92.0023 25.2769 90.9301 24.8286 90.1391 23.9321C89.348 23.0356 88.9525 21.8359 88.9525 20.333C88.9525 18.6455 89.2338 17.002 89.7963 15.4023C90.3588 13.7939 91.1454 12.5723 92.1562 11.7373C93.1757 10.8936 94.4018 10.4717 95.8344 10.4717C96.9594 10.4717 97.8646 10.6914 98.5502 11.1309C99.2445 11.5615 99.7191 12.2119 99.974 13.082H100.04C100.058 12.9062 100.093 12.6426 100.145 12.291C100.198 11.9395 100.277 11.4912 100.383 10.9463L101.49 5.43555H105.142L102.004 21.9546C101.916 22.4468 101.842 22.9478 101.78 23.4575C101.719 23.9673 101.666 24.4814 101.622 25H97.9174C97.9174 24.4463 97.9833 23.7432 98.1151 22.8906H98.0624C97.4384 23.708 96.7616 24.3101 96.0321 24.6968C95.3114 25.0835 94.4193 25.2769 93.3559 25.2769ZM94.9774 22.7324C96.3573 22.7324 97.4032 22.1128 98.1151 20.8735C98.3612 20.4517 98.5678 19.9551 98.7348 19.3838C98.9105 18.8037 99.0468 18.2192 99.1435 17.6304C99.2401 17.0327 99.2885 16.4966 99.2885 16.022C99.2885 14.9673 99.0819 14.2026 98.6688 13.728C98.2558 13.2446 97.6361 13.0029 96.81 13.0029C95.9223 13.0029 95.1928 13.3062 94.6215 13.9126C94.2436 14.3169 93.9228 14.8574 93.6591 15.5342C93.4042 16.2021 93.2064 16.9185 93.0658 17.6831C92.934 18.439 92.8681 19.1509 92.8681 19.8188C92.8681 20.7856 93.0438 21.5151 93.3954 22.0073C93.747 22.4907 94.2743 22.7324 94.9774 22.7324Z" fill="white"/>
<path d="M110.728 25.2637C109.629 25.2637 108.737 25.0352 108.051 24.5781C107.366 24.1211 106.882 23.4795 106.601 22.6533H106.575C106.54 22.9258 106.487 23.2686 106.417 23.6816C106.355 24.0947 106.267 24.5781 106.153 25.1318C105.977 26.0371 105.801 26.9468 105.625 27.8608C105.45 28.7749 105.274 29.689 105.098 30.603H101.407L104.61 14.0181C104.654 13.772 104.698 13.5303 104.742 13.293C104.795 13.0557 104.839 12.814 104.874 12.5679C104.918 12.2603 104.962 11.9526 105.006 11.645C105.05 11.3374 105.089 11.0342 105.125 10.7354H108.75C108.75 10.8145 108.732 11.0034 108.697 11.3022C108.671 11.6011 108.636 11.9131 108.592 12.2383C108.548 12.5547 108.5 12.7964 108.447 12.9634H108.5C109.132 12.0845 109.809 11.4517 110.53 11.0649C111.259 10.6694 112.143 10.4717 113.18 10.4717C114.577 10.4717 115.667 10.8892 116.449 11.7241C117.231 12.5503 117.623 13.6885 117.623 15.1387C117.623 16.9053 117.35 18.6323 116.805 20.3198C116.26 22.0073 115.491 23.2554 114.498 24.064C113.514 24.8638 112.257 25.2637 110.728 25.2637ZM111.598 13.0425C110.49 13.0425 109.603 13.4292 108.935 14.2026C108.275 14.9761 107.796 16.1406 107.498 17.6963C107.454 17.9688 107.414 18.228 107.379 18.4741C107.344 18.7114 107.317 18.9355 107.3 19.1465C107.282 19.3486 107.273 19.5376 107.273 19.7134C107.273 20.6538 107.506 21.3921 107.972 21.9282C108.438 22.4556 109.088 22.7192 109.923 22.7192C110.829 22.7192 111.536 22.438 112.046 21.8755C112.31 21.5942 112.542 21.2163 112.745 20.7417C112.956 20.2583 113.131 19.731 113.272 19.1597C113.421 18.5884 113.531 18.0127 113.602 17.4326C113.681 16.8525 113.72 16.3252 113.72 15.8506C113.72 14.9189 113.549 14.2202 113.206 13.7544C112.872 13.2798 112.336 13.0425 111.598 13.0425ZM127.566 25.1318C126.687 25.1318 126.01 24.9473 125.535 24.5781C125.061 24.209 124.823 23.7212 124.823 23.1147C124.823 22.9478 124.828 22.7939 124.837 22.6533C124.854 22.5127 124.872 22.3853 124.889 22.271H124.81C124.072 23.4136 123.342 24.2002 122.622 24.6309C121.901 25.0527 121.022 25.2637 119.985 25.2637C118.755 25.2637 117.77 24.8989 117.032 24.1694C116.302 23.4312 115.938 22.4863 115.938 21.335C115.938 19.709 116.496 18.4829 117.612 17.6567C118.737 16.8218 120.556 16.3823 123.07 16.3384L125.588 16.2988C125.773 15.4639 125.865 14.8882 125.865 14.5718C125.865 14.0093 125.724 13.5874 125.443 13.3062C125.171 13.0249 124.753 12.8843 124.191 12.8843C123.364 12.8843 122.749 13.0469 122.345 13.3721C121.941 13.6885 121.664 14.1499 121.514 14.7563L118.047 14.3477C118.346 13.082 119.018 12.1196 120.064 11.4604C121.119 10.8013 122.516 10.4717 124.257 10.4717C126.076 10.4717 127.407 10.7925 128.251 11.4341C129.104 12.0757 129.53 13.0513 129.53 14.3608C129.53 14.686 129.425 15.376 129.214 16.4307L128.278 21.0845C128.207 21.5063 128.172 21.8228 128.172 22.0337C128.172 22.394 128.295 22.627 128.541 22.7324C128.787 22.8379 129.011 22.8906 129.214 22.8906C129.504 22.8906 129.776 22.8599 130.031 22.7983L129.846 24.8418C129.477 24.9824 129.104 25.0659 128.726 25.0923C128.348 25.1187 127.961 25.1318 127.566 25.1318ZM119.721 20.7153C119.721 21.3306 119.893 21.814 120.236 22.1655C120.587 22.5083 121.057 22.6797 121.646 22.6797C122.349 22.6797 122.991 22.416 123.571 21.8887C123.879 21.6162 124.142 21.2866 124.362 20.8999C124.591 20.5044 124.766 20.0649 124.889 19.5815L125.179 18.3687H123.044C122.525 18.3774 122.059 18.439 121.646 18.5532C121.233 18.6587 120.882 18.8125 120.592 19.0146C120.31 19.208 120.095 19.4497 119.946 19.7397C119.796 20.0298 119.721 20.355 119.721 20.7153ZM129.295 30.603C128.452 30.603 127.691 30.5239 127.015 30.3657L127.516 27.7817C127.876 27.8608 128.258 27.9004 128.663 27.9004C129.348 27.9004 129.95 27.6982 130.469 27.2939C130.996 26.8896 131.519 26.2305 132.038 25.3164L132.407 24.6836L129.612 10.7354H133.448L134.384 17.2876C134.419 17.5513 134.463 17.8984 134.516 18.3291C134.569 18.7598 134.617 19.208 134.661 19.6738C134.714 20.1309 134.758 20.5483 134.793 20.9263C134.828 21.2954 134.846 21.5503 134.846 21.6909C134.89 21.603 134.929 21.5195 134.964 21.4404C134.999 21.3613 135.035 21.2822 135.07 21.2031L136.902 17.3403L140.317 10.7354H144.272L135.65 25.7515C134.701 27.2368 133.936 28.2695 133.356 28.8496C132.767 29.4473 132.147 29.8867 131.497 30.168C130.847 30.458 130.113 30.603 129.295 30.603Z" fill="#FF5B00"/>
<path fill-rule="evenodd" clip-rule="evenodd" d="M7.93526 4.6272L19.3083 24.3258L30.6813 4.6272H30.6842L15.3421 31.2005L0 4.6272H7.93526Z" fill="white"/>
<path fill-rule="evenodd" clip-rule="evenodd" d="M7.93526 4.6272L19.3083 24.3258L30.6813 4.6272H30.6842L15.3421 31.2005L0 4.6272H7.93526Z" fill="white"/>
<path fill-rule="evenodd" clip-rule="evenodd" d="M7.93526 4.6272L19.3083 24.3258L30.6813 4.6272H30.6842L15.3421 31.2005L0 4.6272H7.93526Z" fill="white"/>
<path fill-rule="evenodd" clip-rule="evenodd" d="M7.93526 4.6272L19.3083 24.3258L30.6813 4.6272H30.6842L15.3421 31.2005L0 4.6272H7.93526Z" fill="white"/>
<path fill-rule="evenodd" clip-rule="evenodd" d="M7.93526 4.6272L19.3083 24.3258L30.6813 4.6272H30.6842L15.3421 31.2005L0 4.6272H7.93526Z" fill="white"/>
<path d="M22.7456 18.5088L14.7311 4.62719L30.7601 4.62719L22.7456 18.5088Z" fill="#FF5B00"/>
</svg>
