<svg xmlns="http://www.w3.org/2000/svg" width="512" height="512" viewBox="0 0 512 512" version="1.1"><path d="" stroke="none" fill="#fff" fill-rule="evenodd"/><path d="M 54.730 82.413 C 44.206 86.754, 37.951 93.170, 34.032 103.643 C 32.055 108.927, 32 111.122, 32 184.363 L 32 259.651 34.314 261.826 C 37.486 264.805, 42.957 264.739, 45.826 261.686 L 48 259.371 48 203.186 C 48 172.283, 48.112 147.002, 48.250 147.005 C 48.388 147.007, 51.200 148.121, 54.500 149.481 L 60.500 151.953 226 151.984 C 334.752 152.004, 393.679 152.369, 397.855 153.046 C 414.823 155.800, 428.200 169.175, 430.953 186.138 C 431.520 189.637, 431.988 203.188, 431.992 216.250 L 432 240 408.105 240 C 387.180 240, 383.421 240.244, 377.855 241.964 C 366.526 245.465, 358.233 251.672, 351.849 261.428 C 341.324 277.512, 341.324 298.488, 351.849 314.572 C 358.279 324.398, 366.589 330.587, 378.033 334.073 C 384.189 335.948, 387.039 336.046, 427.533 335.781 C 468.299 335.514, 470.631 335.400, 473.057 333.557 C 479.742 328.476, 479.471 330.260, 479.785 289.148 L 480.070 251.795 477.569 247.528 C 473.980 241.403, 470.351 240, 458.099 240 L 448 240 447.988 211.750 C 447.975 180.709, 447.572 177.696, 441.869 166.045 C 437.565 157.251, 426.749 146.435, 417.955 142.131 C 406.915 136.727, 402.598 136.025, 380.334 136.012 L 360.169 136 359.823 119.250 C 359.496 103.388, 359.337 102.235, 356.825 97.500 C 353.649 91.513, 348.139 86.070, 342 82.856 L 337.500 80.500 199 80.266 L 60.500 80.033 54.730 82.413 M 62.115 97.501 C 55.977 99.415, 51.251 104.330, 49.389 110.735 C 48.015 115.462, 48.015 116.538, 49.389 121.265 C 51.296 127.826, 56.006 132.596, 62.512 134.554 C 66.605 135.785, 87.849 136, 205.659 136 L 344 136 344 123.743 C 344 117.002, 343.558 109.944, 343.017 108.058 C 341.717 103.526, 336.456 98.221, 332.044 96.996 C 329.796 96.371, 280.601 96.034, 197.500 96.072 C 89.640 96.123, 65.726 96.375, 62.115 97.501 M 386.132 257.078 C 371.241 260.004, 360.670 272.843, 360.670 288 C 360.670 296.917, 363.489 303.650, 369.910 310.064 C 379.248 319.392, 379.013 319.350, 424.750 319.768 L 464 320.126 464 288.063 L 464 256 427.250 256.110 C 407.038 256.170, 388.534 256.605, 386.132 257.078 M 101.500 265.657 C 69.923 272.394, 43.994 296.694, 34.976 328 C 30.231 344.475, 31.378 367.936, 37.714 384 C 46.396 406.013, 65.499 425.280, 87.228 433.941 C 114.198 444.691, 147.562 440.937, 170.500 424.571 C 209.391 396.823, 219.672 344.116, 194.001 304.096 C 184.622 289.475, 168.343 276.151, 152 269.720 C 137.685 264.086, 116.754 262.402, 101.500 265.657 M 384.218 273.607 C 378.700 276.421, 376.500 280.523, 376.500 288 C 376.500 293.122, 376.973 295.163, 378.730 297.627 C 381.948 302.137, 387.154 304.318, 393.458 303.795 C 401.892 303.096, 407.096 297.892, 407.795 289.458 C 408.316 283.181, 406.139 277.947, 401.692 274.781 C 397.622 271.883, 388.765 271.288, 384.218 273.607 M 111.193 281.035 C 81.404 285.080, 58.115 305.781, 50.479 335 C 48.251 343.527, 48.193 359.358, 50.357 368.319 C 55.416 389.270, 69.326 406.665, 88.500 416.018 C 99.059 421.169, 108.264 423.284, 120 423.256 C 148.178 423.189, 172.895 407.538, 184.650 382.319 C 193.909 362.455, 193.476 338.117, 183.528 319.185 C 169.583 292.648, 140.117 277.107, 111.193 281.035 M 98.240 322.260 C 81.411 339.107, 80 340.796, 80 344.086 C 80 348.717, 83.338 352, 88.047 352 C 91.047 352, 92.724 350.746, 101.733 341.768 L 112 331.536 112 363.594 L 112 395.651 114.314 397.826 C 117.486 400.805, 122.957 400.739, 125.826 397.686 C 127.964 395.409, 128 394.848, 128 363.453 L 128 331.536 138.267 341.768 C 147.434 350.904, 148.915 352, 152.093 352 C 156.729 352, 160 348.660, 160 343.925 C 160 340.790, 158.358 338.840, 141.740 322.240 C 125.020 305.539, 123.185 304, 119.980 304 C 116.773 304, 114.950 305.532, 98.240 322.260 M 434.174 362.314 C 432.260 364.352, 431.999 365.759, 431.992 374.064 C 431.988 379.254, 431.521 386.360, 430.954 389.855 C 428.200 406.823, 414.825 420.200, 397.862 422.953 C 393.815 423.609, 357.448 423.988, 297.924 423.992 L 204.349 424 202.174 426.314 C 199.195 429.486, 199.261 434.957, 202.314 437.826 L 204.629 440 302.564 439.988 C 384.968 439.978, 401.365 439.746, 405.955 438.525 C 425.584 433.301, 441.301 417.584, 446.525 397.955 C 447.463 394.430, 447.980 387.520, 447.988 378.424 C 447.999 364.996, 447.893 364.249, 445.686 362.174 C 442.514 359.195, 437.043 359.261, 434.174 362.314" stroke="none" fill="#ffff" fill-rule="evenodd"/></svg>